<svg width="39" height="39" viewBox="0 0 39 39" fill="none" xmlns="http://www.w3.org/2000/svg">
<path fill-rule="evenodd" clip-rule="evenodd" d="M3.25 3.25C2.35254 3.25 1.625 3.97754 1.625 4.875C1.625 5.77245 2.35254 6.5 3.25 6.5H4.01767C4.75046 6.5 5.39259 6.99046 5.5854 7.69743L6.26181 10.1776L9.75 22.9676V26C9.75 27.1269 10.1324 28.1647 10.7745 28.9903C10.1371 29.7076 9.75 30.6524 9.75 31.6875C9.75 33.9311 11.5688 35.75 13.8125 35.75C16.0562 35.75 17.875 33.9311 17.875 31.6875C17.875 31.4093 17.847 31.1376 17.7937 30.875H22.8312C22.7779 31.1376 22.75 31.4093 22.75 31.6875C22.75 33.9311 24.5689 35.75 26.8125 35.75C29.0561 35.75 30.875 33.9311 30.875 31.6875C30.875 31.1537 30.772 30.6439 30.5849 30.1769C30.7677 29.914 30.875 29.5945 30.875 29.25C30.875 28.3525 30.1475 27.625 29.25 27.625H26.8125H14.625C13.7275 27.625 13 26.8975 13 26V24.375H29.6335C31.0994 24.375 32.3838 23.3938 32.7693 21.9794L35.4261 12.2295C35.9894 10.1622 34.4331 8.125 32.2904 8.125H9.07072L8.72089 6.84231C8.14245 4.72139 6.21605 3.25 4.01767 3.25H3.25ZM26.8125 30.875C26.3638 30.875 26 31.2388 26 31.6875C26 32.1362 26.3638 32.5 26.8125 32.5C27.2612 32.5 27.625 32.1362 27.625 31.6875C27.625 31.2388 27.2612 30.875 26.8125 30.875ZM29.6335 21.125H12.6162L9.95707 11.375H32.2904L29.6335 21.125ZM13.8125 30.875C13.3638 30.875 13 31.2388 13 31.6875C13 32.1362 13.3638 32.5 13.8125 32.5C14.2612 32.5 14.625 32.1362 14.625 31.6875C14.625 31.2388 14.2612 30.875 13.8125 30.875Z" fill="white"/>
</svg>
