<svg width="39" height="37" viewBox="0 0 39 37" fill="none" xmlns="http://www.w3.org/2000/svg">
<g clip-path="url(#clip0_10_10)">
<path fill-rule="evenodd" clip-rule="evenodd" d="M29.7572 35.2459C28.3502 34.7504 27.1507 34.109 26.2057 33.5077C24.1334 34.2872 21.8689 34.716 19.5 34.716C9.62791 34.716 1.625 27.2824 1.625 18.1127C1.625 8.94295 9.62791 1.5094 19.5 1.5094C29.372 1.5094 37.375 8.94295 37.375 18.1127C37.375 21.5523 36.2472 24.7514 34.3166 27.4031C34.1941 29.5957 35.4338 31.5767 36.7205 33.3297C37.8474 34.8649 37.5646 36.1022 35.4634 36.2128C34.5215 36.2623 32.4842 36.2063 29.7572 35.2459ZM4.875 18.1127C4.875 10.6102 11.4228 4.52818 19.5 4.52818C27.5772 4.52818 34.125 10.6102 34.125 18.1127C34.125 21.0564 33.1188 23.7776 31.408 26.0011C30.6511 26.9852 31.0404 28.829 31.3001 29.8876C31.5521 30.915 32.0989 32.0068 32.6391 32.9233C32.122 32.8075 31.543 32.6463 30.9095 32.4232C29.4513 31.9096 28.2464 31.1876 27.3965 30.5818C26.9142 30.2379 26.2657 30.173 25.7156 30.4133C23.8313 31.2364 21.7258 31.6972 19.5 31.6972C11.4228 31.6972 4.875 25.6153 4.875 18.1127ZM11.375 20.3768C12.7212 20.3768 13.8125 19.3631 13.8125 18.1127C13.8125 16.8623 12.7212 15.8486 11.375 15.8486C10.0288 15.8486 8.9375 16.8623 8.9375 18.1127C8.9375 19.3631 10.0288 20.3768 11.375 20.3768ZM21.9375 18.1127C21.9375 19.3631 20.8461 20.3768 19.5 20.3768C18.1539 20.3768 17.0625 19.3631 17.0625 18.1127C17.0625 16.8623 18.1539 15.8486 19.5 15.8486C20.8461 15.8486 21.9375 16.8623 21.9375 18.1127ZM27.625 20.3768C28.9711 20.3768 30.0625 19.3631 30.0625 18.1127C30.0625 16.8623 28.9711 15.8486 27.625 15.8486C26.2789 15.8486 25.1875 16.8623 25.1875 18.1127C25.1875 19.3631 26.2789 20.3768 27.625 20.3768Z" fill="white"/>
</g>
<defs>
<clipPath id="clip0_10_10">
<rect width="39" height="36.2254" fill="white"/>
</clipPath>
</defs>
</svg>
