<svg width="38" height="38" viewBox="0 0 38 38" fill="none" xmlns="http://www.w3.org/2000/svg">
<path fill-rule="evenodd" clip-rule="evenodd" d="M15.8333 7.91667C11.4611 7.91667 7.91667 11.4611 7.91667 15.8333C7.91667 20.2055 11.4611 23.75 15.8333 23.75C18.0199 23.75 19.9969 22.8657 21.4312 21.4312C22.8657 19.9969 23.75 18.0199 23.75 15.8333C23.75 11.4611 20.2055 7.91667 15.8333 7.91667ZM4.75 15.8333C4.75 9.71218 9.71218 4.75 15.8333 4.75C21.9545 4.75 26.9167 9.71218 26.9167 15.8333C26.9167 18.3222 26.0949 20.6212 24.71 22.4708L32.7862 30.5471C33.4045 31.1654 33.4045 32.1679 32.7862 32.7862C32.1679 33.4045 31.1654 33.4045 30.5471 32.7862L22.4708 24.71C20.6212 26.0949 18.3222 26.9167 15.8333 26.9167C9.71218 26.9167 4.75 21.9545 4.75 15.8333Z" fill="white"/>
</svg>
